<svg width="72" height="80" viewBox="0 0 72 80" fill="none" xmlns="http://www.w3.org/2000/svg">
<g id="&#231;&#174;&#173;&#229;&#164;&#180;">
<path id="Subtract" d="M36.7598 71.8564L9 26.9805H64.5195L36.7598 71.8564Z" fill="url(#paint0_linear_3153_19412)"/>
<g id="Union" filter="url(#filter0_d_3153_19412)">
<mask id="path-2-inside-1_3153_19412" fill="white">
<path d="M36.4629 27.2754L42.9717 16.001H55.9912L41.6035 40.9209H49.6523L36.4629 63.7656L23.2744 40.9209H31.3223L16.9346 16.001H29.9541L36.4629 27.2754Z"/>
</mask>
<path d="M36.4629 27.2754L42.9717 16.001H55.9912L41.6035 40.9209H49.6523L36.4629 63.7656L23.2744 40.9209H31.3223L16.9346 16.001H29.9541L36.4629 27.2754Z" fill="url(#paint1_linear_3153_19412)"/>
<path d="M36.4629 27.2754L34.7308 28.2753L36.4629 31.2756L38.195 28.2753L36.4629 27.2754ZM42.9717 16.001V14.001H41.8169L41.2396 15.001L42.9717 16.001ZM55.9912 16.001L57.7233 17.001L59.4553 14.001H55.9912V16.001ZM41.6035 40.9209L39.8715 39.9209L38.1394 42.9209H41.6035V40.9209ZM49.6523 40.9209L51.3844 41.9209L53.1165 38.9209H49.6523V40.9209ZM36.4629 63.7656L34.7308 64.7656L36.4628 67.7657L38.1949 64.7656L36.4629 63.7656ZM23.2744 40.9209V38.9209H19.8104L21.5423 41.9208L23.2744 40.9209ZM31.3223 40.9209V42.9209H34.7864L33.0543 39.9209L31.3223 40.9209ZM16.9346 16.001V14.001H13.4704L15.2025 17.001L16.9346 16.001ZM29.9541 16.001L31.6862 15.001L31.1088 14.001H29.9541V16.001ZM36.4629 27.2754L38.195 28.2753L44.7038 17.0009L42.9717 16.001L41.2396 15.001L34.7308 26.2754L36.4629 27.2754ZM42.9717 16.001V18.001H55.9912V16.001V14.001H42.9717V16.001ZM55.9912 16.001L54.2592 15.001L39.8715 39.9209L41.6035 40.9209L43.3356 41.9209L57.7233 17.001L55.9912 16.001ZM41.6035 40.9209V42.9209H49.6523V40.9209V38.9209H41.6035V40.9209ZM49.6523 40.9209L47.9203 39.9209L34.7308 62.7656L36.4629 63.7656L38.1949 64.7656L51.3844 41.9209L49.6523 40.9209ZM36.4629 63.7656L38.195 62.7657L25.0065 39.921L23.2744 40.9209L21.5423 41.9208L34.7308 64.7656L36.4629 63.7656ZM23.2744 40.9209V42.9209H31.3223V40.9209V38.9209H23.2744V40.9209ZM31.3223 40.9209L33.0543 39.9209L18.6666 15.001L16.9346 16.001L15.2025 17.001L29.5902 41.9209L31.3223 40.9209ZM16.9346 16.001V18.001H29.9541V16.001V14.001H16.9346V16.001ZM29.9541 16.001L28.222 17.0009L34.7308 28.2753L36.4629 27.2754L38.195 26.2754L31.6862 15.001L29.9541 16.001Z" fill="url(#paint2_linear_3153_19412)" mask="url(#path-2-inside-1_3153_19412)"/>
</g>
</g>
<defs>
<filter id="filter0_d_3153_19412" x="0.93457" y="0.000976562" width="71.0566" height="79.7646" filterUnits="userSpaceOnUse" color-interpolation-filters="sRGB">
<feFlood flood-opacity="0" result="BackgroundImageFix"/>
<feColorMatrix in="SourceAlpha" type="matrix" values="0 0 0 0 0 0 0 0 0 0 0 0 0 0 0 0 0 0 127 0" result="hardAlpha"/>
<feOffset/>
<feGaussianBlur stdDeviation="8"/>
<feComposite in2="hardAlpha" operator="out"/>
<feColorMatrix type="matrix" values="0 0 0 0 0.141176 0 0 0 0 1 0 0 0 0 0.984314 0 0 0 0.45 0"/>
<feBlend mode="normal" in2="BackgroundImageFix" result="effect1_dropShadow_3153_19412"/>
<feBlend mode="normal" in="SourceGraphic" in2="effect1_dropShadow_3153_19412" result="shape"/>
</filter>
<linearGradient id="paint0_linear_3153_19412" x1="36.7598" y1="27.1203" x2="36.7598" y2="63.6905" gradientUnits="userSpaceOnUse">
<stop stop-color="#4D98FC" stop-opacity="0"/>
<stop offset="1" stop-color="#0BE4DE"/>
</linearGradient>
<linearGradient id="paint1_linear_3153_19412" x1="36.4629" y1="21.4901" x2="36.4629" y2="56.2646" gradientUnits="userSpaceOnUse">
<stop stop-color="#0BE4DE"/>
<stop offset="0.144231" stop-color="#1AD2E5"/>
<stop offset="1" stop-color="#4D98FC"/>
</linearGradient>
<linearGradient id="paint2_linear_3153_19412" x1="36.4629" y1="16.001" x2="36.4629" y2="63.7656" gradientUnits="userSpaceOnUse">
<stop stop-color="white" stop-opacity="0"/>
<stop offset="1" stop-color="white"/>
</linearGradient>
</defs>
</svg>
