<svg width="28" height="16" viewBox="0 0 28 16" fill="none" xmlns="http://www.w3.org/2000/svg">
<mask id="path-1-inside-1_3791_84555" fill="white">
<path d="M0.567383 0L14 5.47656L27.4326 0H27.5791L14 10L0.420898 0H0.567383Z"/>
</mask>
<path d="M0.567383 0L14 5.47656L27.4326 0H27.5791L14 10L0.420898 0H0.567383Z" fill="url(#paint0_linear_3791_84555)" fill-opacity="0.65"/>
<path d="M0.567383 0L0.944917 -0.925996L0.763403 -1H0.567383V0ZM14 5.47656L13.6225 6.40256L14 6.55648L14.3775 6.40256L14 5.47656ZM27.4326 0V-1H27.2366L27.0551 -0.925996L27.4326 0ZM27.5791 0L28.1721 0.805216L30.6234 -1H27.5791V0ZM14 10L13.407 10.8052L14 11.2419L14.593 10.8052L14 10ZM0.420898 0V-1H-2.6234L-0.172083 0.805216L0.420898 0ZM0.567383 0L0.189849 0.925996L13.6225 6.40256L14 5.47656L14.3775 4.55057L0.944917 -0.925996L0.567383 0ZM14 5.47656L14.3775 6.40256L27.8102 0.925996L27.4326 0L27.0551 -0.925996L13.6225 4.55057L14 5.47656ZM27.4326 0V1H27.5791V0V-1H27.4326V0ZM27.5791 0L26.9861 -0.805216L13.407 9.19478L14 10L14.593 10.8052L28.1721 0.805216L27.5791 0ZM14 10L14.593 9.19478L1.01388 -0.805216L0.420898 0L-0.172083 0.805216L13.407 10.8052L14 10ZM0.420898 0V1H0.567383V0V-1H0.420898V0Z" fill="url(#paint1_linear_3791_84555)" mask="url(#path-1-inside-1_3791_84555)"/>
<mask id="path-3-inside-2_3791_84555" fill="white">
<path d="M4.40527 6L14 11.4766L23.5947 6H23.6992L14 16L4.30078 6H4.40527Z"/>
</mask>
<path d="M4.40527 6L14 11.4766L23.5947 6H23.6992L14 16L4.30078 6H4.40527Z" fill="url(#paint2_linear_3791_84555)" fill-opacity="0.65"/>
<path d="M4.40527 6L4.90099 5.13152L4.67058 5H4.40527V6ZM14 11.4766L13.5043 12.345L14 12.628L14.4957 12.345L14 11.4766ZM23.5947 6V5H23.3294L23.099 5.13152L23.5947 6ZM23.6992 6L24.417 6.69623L26.0622 5H23.6992V6ZM14 16L13.2822 16.6962L14 17.4363L14.7178 16.6962L14 16ZM4.30078 6V5H1.93775L3.58296 6.69623L4.30078 6ZM4.40527 6L3.90955 6.86848L13.5043 12.345L14 11.4766L14.4957 10.6081L4.90099 5.13152L4.40527 6ZM14 11.4766L14.4957 12.345L24.0904 6.86848L23.5947 6L23.099 5.13152L13.5043 10.6081L14 11.4766ZM23.5947 6V7H23.6992V6V5H23.5947V6ZM23.6992 6L22.9814 5.30377L13.2822 15.3038L14 16L14.7178 16.6962L24.417 6.69623L23.6992 6ZM14 16L14.7178 15.3038L5.0186 5.30377L4.30078 6L3.58296 6.69623L13.2822 16.6962L14 16ZM4.30078 6V7H4.40527V6V5H4.30078V6Z" fill="url(#paint3_linear_3791_84555)" mask="url(#path-3-inside-2_3791_84555)"/>
<defs>
<linearGradient id="paint0_linear_3791_84555" x1="14" y1="0" x2="14" y2="10" gradientUnits="userSpaceOnUse">
<stop stop-color="white" stop-opacity="0"/>
<stop offset="0.440399" stop-color="#24FFFB" stop-opacity="0.85"/>
<stop offset="1" stop-color="#24FFFB"/>
</linearGradient>
<linearGradient id="paint1_linear_3791_84555" x1="14" y1="5.625" x2="14" y2="10" gradientUnits="userSpaceOnUse">
<stop stop-color="white" stop-opacity="0"/>
<stop offset="1" stop-color="white"/>
</linearGradient>
<linearGradient id="paint2_linear_3791_84555" x1="14" y1="6" x2="14" y2="16" gradientUnits="userSpaceOnUse">
<stop stop-color="white" stop-opacity="0"/>
<stop offset="0.440399" stop-color="#24FFFB" stop-opacity="0.85"/>
<stop offset="1" stop-color="#24FFFB"/>
</linearGradient>
<linearGradient id="paint3_linear_3791_84555" x1="14" y1="11" x2="14" y2="16" gradientUnits="userSpaceOnUse">
<stop stop-color="white" stop-opacity="0"/>
<stop offset="1" stop-color="white"/>
</linearGradient>
</defs>
</svg>
