<svg width="16" height="16" viewBox="0 0 16 16" fill="none" xmlns="http://www.w3.org/2000/svg">
<g id="&#231;&#186;&#191;&#230;&#128;&#167;/&#229;&#175;&#185;&#230;&#175;&#148;">
<g id="Union">
<path d="M9 15H8V1H9V15Z" fill="white"/>
<path d="M7 4H2V12H7V13H2C1.48232 13 1.05621 12.6067 1.00488 12.1025L1 12V4C1 3.44772 1.44772 3 2 3H7V4Z" fill="white"/>
<path d="M12 13H10V12H12V13Z" fill="white"/>
<path d="M15 12L14.9951 12.1025C14.9472 12.573 14.573 12.9472 14.1025 12.9951L14 13H13V12H14V11.1113H15V12Z" fill="white"/>
<path d="M15 10.2227H14V8.44434H15V10.2227Z" fill="white"/>
<path d="M6 10H3V9H6V10Z" fill="white"/>
<path d="M15 7.55566H14V5.77734H15V7.55566Z" fill="white"/>
<path d="M6 7H3V6H6V7Z" fill="white"/>
<path d="M14.1025 3.00488C14.6067 3.05621 15 3.48232 15 4V4.88867H14V4H13V3H14L14.1025 3.00488Z" fill="white"/>
<path d="M12 4H10V3H12V4Z" fill="white"/>
</g>
</g>
</svg>
