<svg width="16" height="16" viewBox="0 0 16 16" fill="none" xmlns="http://www.w3.org/2000/svg">
<g id="&#231;&#186;&#191;&#230;&#128;&#167;/&#232;&#175;&#166;&#230;&#131;&#133;">
<path id="Union" d="M13 1C13.5523 1 14 1.44772 14 2V14L13.9951 14.1025C13.9472 14.573 13.573 14.9472 13.1025 14.9951L13 15H3L2.89746 14.9951C2.42703 14.9472 2.05278 14.573 2.00488 14.1025L2 14V2C2 1.44772 2.44772 1 3 1H13ZM3 14H13V2H3V14ZM11 8.5C11.2761 8.5 11.5 8.72386 11.5 9C11.5 9.27614 11.2761 9.5 11 9.5H5C4.72386 9.5 4.5 9.27614 4.5 9C4.5 8.72386 4.72386 8.5 5 8.5H11ZM11 5.5C11.2761 5.5 11.5 5.72386 11.5 6C11.5 6.27614 11.2761 6.5 11 6.5H5C4.72386 6.5 4.5 6.27614 4.5 6C4.5 5.72386 4.72386 5.5 5 5.5H11Z" fill="white"/>
</g>
</svg>
