<svg width="16" height="16" viewBox="0 0 16 16" fill="none" xmlns="http://www.w3.org/2000/svg">
<g id="&#231;&#186;&#191;&#230;&#128;&#167;/&#232;&#175;&#138;&#230;&#150;&#173;">
<path id="Union" d="M14.5625 2C14.8041 2 15 2.19188 15 2.42857V4.99107C15 5.2327 14.8041 5.42857 14.5625 5.42857C14.3209 5.42857 14.125 5.2327 14.125 4.99107V2.85714H1.875V7.75223H2.46033L3.9104 4.40402L3.94031 4.3471C4.01901 4.22155 4.15941 4.14292 4.31287 4.14286C4.48846 4.14286 4.64761 4.24567 4.71619 4.40402L7.28223 10.3304L9.34753 5.56417L9.37744 5.50809C9.45613 5.38231 9.59634 5.30301 9.75 5.30301C9.92546 5.30301 10.0838 5.40603 10.1525 5.56417L11.5914 8.88728L11.9708 8.01339L12.0007 7.95647C12.0794 7.83078 12.2197 7.7523 12.3733 7.75223H14C14.5523 7.75223 15 8.19995 15 8.75223V13.5714C15 13.8081 14.8041 14 14.5625 14H1.4375C1.19588 14 1 13.8081 1 13.5714V11.0089C1 10.7673 1.19588 10.5714 1.4375 10.5714C1.67912 10.5714 1.875 10.7673 1.875 11.0089V13.1429H14.125V8.60938H12.6638L11.9948 10.1521C11.9262 10.3103 11.7678 10.4131 11.5923 10.4132C11.4167 10.4132 11.2575 10.3104 11.189 10.1521L9.75 6.82812L7.68555 11.596C7.617 11.7542 7.45855 11.857 7.28308 11.8571C7.10749 11.8571 6.94834 11.7543 6.87976 11.596L4.31287 5.66881L3.15247 8.34821C3.08379 8.50632 2.92544 8.60938 2.75 8.60938H2C1.44772 8.60938 1 8.16166 1 7.60938V2.42857C1 2.19188 1.19588 2 1.4375 2H14.5625Z" fill="white"/>
</g>
</svg>
