<svg width="16" height="16" viewBox="0 0 16 16" fill="none" xmlns="http://www.w3.org/2000/svg">
<g id="&#231;&#186;&#191;&#230;&#128;&#167;/&#231;&#155;&#145;&#230;&#181;&#139;&#230;&#149;&#176;&#230;&#141;&#174;">
<path id="Union" fill-rule="evenodd" clip-rule="evenodd" d="M8.4375 1.01453C11.9549 1.23147 14.7677 4.04507 14.9846 7.5625H15V8.4375H14.9846C14.7677 11.9549 11.9549 14.7677 8.4375 14.9846V15H7.5625V14.9846C4.04509 14.7677 1.23235 11.9549 1.01538 8.4375H1V7.5625H1.01538C1.23235 4.04507 4.04506 1.23147 7.5625 1.01453V1H8.4375V1.01453ZM1.89209 8.4375C2.10627 11.4715 4.52854 13.8937 7.5625 14.1079V12.3528C5.49559 12.1475 3.85157 10.5044 3.64636 8.4375H1.89209ZM4.5282 8.4375C4.72567 10.0206 5.97942 11.2743 7.5625 11.4718V8.4375H4.5282ZM7.5625 1.89209C4.52854 2.10627 2.10627 4.52854 1.89209 7.5625H3.64636C3.85157 5.49555 5.49555 3.85157 7.5625 3.64636V1.89209ZM8.4375 7.5625H11.4718C11.2743 5.97939 10.0206 4.72477 8.4375 4.52734V7.5625ZM8.4375 3.64636C10.5045 3.85157 12.1484 5.49555 12.3536 7.5625H14.1079C13.8937 4.52854 11.4715 2.10627 8.4375 1.89209V3.64636ZM7.5625 4.52734C5.97937 4.72477 4.72567 5.97939 4.5282 7.5625H7.5625V4.52734Z" fill="white"/>
</g>
</svg>
