<svg width="24" height="24" viewBox="0 0 24 24" fill="none" xmlns="http://www.w3.org/2000/svg">
<path d="M12 0C18.6274 0 24 5.37258 24 12C24 18.6274 18.6274 24 12 24C5.37258 24 0 18.6274 0 12C0 5.37258 5.37258 0 12 0ZM7.71484 11.1436C5.8213 11.1436 4.28613 12.6787 4.28613 14.5723C4.28658 16.4654 5.82157 18 7.71484 18C9.60784 17.9997 11.1431 16.4652 11.1436 14.5723C11.1436 12.6789 9.60811 11.1439 7.71484 11.1436ZM16.2861 11.1436C14.3926 11.1436 12.8574 12.6787 12.8574 14.5723C12.8579 16.4654 14.3929 18 16.2861 18C18.1792 17.9997 19.7144 16.4653 19.7148 14.5723C19.7148 12.6789 18.1795 11.1438 16.2861 11.1436ZM12 3.42871C10.1066 3.42883 8.57137 4.96402 8.57129 6.85742C8.57152 8.7507 10.1067 10.286 12 10.2861C13.8933 10.286 15.4285 8.75068 15.4287 6.85742C15.4286 4.96404 13.8934 3.42886 12 3.42871Z" fill="white"/>
</svg>
