{"asset":{"version":"2.0","generator":"THREE.GLTFExporter"},"scenes":[{"name":"场景000","nodes":[0,1,3,5,7,15,23,31],"extras":{"children":[{"uuid":"975F97F5-8205-40A2-81C0-8A175BA39D18","children":[]},{"uuid":"3C484611-AFD5-49D1-9DA8-5BAE46BDCCDC","children":[]},{"children":[{"uuid":"15806187-E451-4F85-BDEA-791C5F66A0A9","children":[]}],"uuid":"48978811-49A1-4D1C-9C26-1403E9FE026B"},{"uuid":"DC159EEF-6DA4-49E6-98F3-8485AC1348B5","children":[{"uuid":"56496052-A4AE-49FB-A163-6D59D661FD49","children":[]}]},{"uuid":"F98FB539-8624-4491-856D-D34BCB71523F","children":[{"uuid":"7F8EBC0A-5563-4E91-A556-11E850A569D1","children":[]}]},{"uuid":"4D8B0ECF-27CA-4A6B-8388-7286EAA0A798","children":[{"children":[{"uuid":"611AB522-0423-4193-987F-F85D033AAACC","children":[{"children":[{"uuid":"E02FDC02-AA74-4F45-BEBF-BCF853A1EF14","children":[]},{"children":[],"uuid":"BCEF3732-11B0-482E-8A87-B8F911BCD0DE"},{"uuid":"1EDFAFA8-A2F2-4E27-89F6-B0EA176F3846","children":[]},{"uuid":"6FF1401B-172D-4FD6-A844-676C8E988766","children":[]}],"uuid":"B23140D3-6079-4105-9F8C-83C6537268E9"}]}],"uuid":"2424EA0C-3427-4A0E-86F8-ED21380ACE33"}]},{"uuid":"3840A433-8519-4918-B31F-7AB25B695204","children":[{"uuid":"4BD7C213-3219-4D8E-AB1C-13A8ACDC7870","children":[{"uuid":"D1DA7EB1-04F5-4E43-841C-7CF07985D10F","children":[{"uuid":"16833D74-F9BA-4C07-816C-21729F32DC3A","children":[{"uuid":"E0A592E2-3A46-46BB-9EAD-A3964D19278B","children":[]},{"uuid":"0173F640-9F85-4816-AAA0-9D63127779FC","children":[]},{"uuid":"2FC9A465-F7B5-4981-BB1A-E59A119AA512","children":[]},{"uuid":"4E76BEF0-A2D7-4047-B3A7-152EFA665B14","children":[]}]}]}]}]},{"uuid":"22B523AB-7AE2-4782-B9C2-9655B02BC90F","children":[{"uuid":"9F598495-3542-4980-8E5E-1D52EA91A727","children":[{"uuid":"3400386F-DA86-4925-9034-8E42673B69D3","children":[{"children":[{"children":[],"uuid":"08CB1652-0092-4555-9A93-51CA6D655C29"},{"children":[],"uuid":"94A8F39D-84E8-4118-A68C-B0F6A51652BD"},{"children":[],"uuid":"B080FCEE-F2BE-48BE-B806-3C0CBA41876F"},{"uuid":"B0424426-C626-479A-98B2-36F0F3762B13","children":[]}],"uuid":"BB220ACC-4F59-4CB7-9072-8C73497F1A60"}]}]}]}]}}],"scene":0,"nodes":[{"name":"环境光"},{"matrix":[1,0,0,0,0,1,0,0,0,0,1,0,5,10,7.5,1],"name":"平行光","extensions":{"KHR_lights_punctual":{"light":0}}},{"name":"Aset_industrial_hardware_L_vilidaw_00_LOD0","extras":{"transformData":{"inheritType":1,"eulerOrder":"ZYX","parentMatrix":{"elements":[0.026,0,0,0,0,0.026,0,0,0,0,0.026,0,0,0.05594285049853198,0,1]},"parentMatrixWorld":{"elements":[0.026,0,0,0,0,0.026,0,0,0,0,0.026,0,0,0.05594285049853198,0,1]}}},"mesh":0},{"matrix":[0.026,0,0,0,0,0.026,0,0,0,0,0.026,0,0,0.05594285049853198,0,1],"name":"管道模型","extras":{"transformData":{"inheritType":1,"eulerOrder":"ZYX","parentMatrix":{"elements":[1,0,0,0,0,1,0,0,0,0,1,0,0,0,0,1]},"parentMatrixWorld":{"elements":[1,0,0,0,0,1,0,0,0,0,1,0,0,0,0,1]}},"_children":[{"uuid":"B1AFBBAE-51E9-4820-9291-E7071C74FC29","children":[]}],"physics":{"enabled":false,"type":"rigidBody","shape":"btBoxShape","mass":1,"inertia":{"x":0,"y":0,"z":0}},"ID":"64ca1f4678138dcc70f29fa7","Name":"管道模型","CategoryID":"","CategoryName":"","TotalPinYin":"guandaomoxing","FirstPinYin":"gdmx","Type":"fbx","Url":"/Upload/Model/20230802171757/vilidaw_LOD0.fbx","FileName":"","FileSize":"","FileType":"","SaveName":"","SavePath":"","AddTime":"0001-01-01 00:00:00","Thumbnail":"","id":"64ca1f4678138dcc70f29fa7","src":null,"title":"管道模型","icon":"model","cornerText":"fbx","Server":true},"children":[2]},{"name":"Aset_industrial_hardware_L_vilidaw_00_LOD0","extras":{"transformData":{"inheritType":1,"eulerOrder":"ZYX","parentMatrix":{"elements":[0.026,0,0,0,0,0.026,0,0,0,0,0.026,0,0,0,0,1]},"parentMatrixWorld":{"elements":[0.026,0,0,0,0,0.026,0,0,0,0,0.026,0,0,0,0,1]}}},"mesh":0},{"matrix":[0.026,0,0,0,0,0.026,0,0,0,0,0.026,0,-4.408267567293971,0.08511089122675752,0,1],"name":"管道模型","extras":{"transformData":{"inheritType":1,"eulerOrder":"ZYX","parentMatrix":{"elements":[1,0,0,0,0,1,0,0,0,0,1,0,0,0,0,1]},"parentMatrixWorld":{"elements":[1,0,0,0,0,1,0,0,0,0,1,0,0,0,0,1]}},"_children":[{"uuid":"E8111BA4-0A0E-4468-9E54-8433C90751DC","children":[]}],"physics":{"enabled":false,"type":"rigidBody","shape":"btBoxShape","mass":1,"inertia":{"x":0,"y":0,"z":0}},"ID":"64ca1f4678138dcc70f29fa7","Name":"管道模型","CategoryID":"","CategoryName":"","TotalPinYin":"guandaomoxing","FirstPinYin":"gdmx","Type":"fbx","Url":"/Upload/Model/20230802171757/vilidaw_LOD0.fbx","FileName":"","FileSize":"","FileType":"","SaveName":"","SavePath":"","AddTime":"0001-01-01 00:00:00","Thumbnail":"","id":"64ca1f4678138dcc70f29fa7","src":null,"title":"管道模型","icon":"model","cornerText":"fbx","Server":true},"children":[4]},{"name":"Aset_industrial_hardware_L_vilidaw_00_LOD0","extras":{"transformData":{"inheritType":1,"eulerOrder":"ZYX","parentMatrix":{"elements":[0.026,0,0,0,0,0.026,0,0,0,0,0.026,0,0,0,0,1]},"parentMatrixWorld":{"elements":[0.026,0,0,0,0,0.026,0,0,0,0,0.026,0,0,0,0,1]}}},"mesh":0},{"matrix":[0.026,0,0,0,0,0.026,0,0,0,0,0.026,0,4.395201094816685,0,0,1],"name":"管道模型","extras":{"transformData":{"inheritType":1,"eulerOrder":"ZYX","parentMatrix":{"elements":[1,0,0,0,0,1,0,0,0,0,1,0,0,0,0,1]},"parentMatrixWorld":{"elements":[1,0,0,0,0,1,0,0,0,0,1,0,0,0,0,1]}},"_children":[{"uuid":"FDBEE8B5-400B-4EAB-8403-DADC5E0DC0D8","children":[]}],"physics":{"enabled":false,"type":"rigidBody","shape":"btBoxShape","mass":1,"inertia":{"x":0,"y":0,"z":0}},"ID":"64ca1f4678138dcc70f29fa7","Name":"管道模型","CategoryID":"","CategoryName":"","TotalPinYin":"guandaomoxing","FirstPinYin":"gdmx","Type":"fbx","Url":"/Upload/Model/20230802171757/vilidaw_LOD0.fbx","FileName":"","FileSize":"","FileType":"","SaveName":"","SavePath":"","AddTime":"0001-01-01 00:00:00","Thumbnail":"","id":"64ca1f4678138dcc70f29fa7","src":null,"title":"管道模型","icon":"model","cornerText":"fbx","Server":true},"children":[6]},{"name":"pCube351_1","mesh":1},{"name":"pCube351_2","mesh":2},{"name":"pCube351_3","mesh":3},{"name":"pCube351_4","mesh":4},{"matrix":[1,0,0,0,0,1,0,0,0,0,1,0,0.2309354990720749,-0.05464321002364159,0.1667580008506775,1],"children":[8,9,10,11]},{"matrix":[56.73768615722674,-73.97837066650392,0.000006893797296420495,0,0.000006893797920399637,0.000013975053717090174,93.2307052612308,0,-73.97837066650455,-56.737686157226236,0.000013975053969479623,0,0,0,0.035969078540802,1],"name":"pCube351","extras":{"name":"pCube351"},"children":[12]},{"matrix":[1,0,0,0,0,2.220446049250313e-16,-1,0,0,1,2.220446049250313e-16,0,0,0,0,1],"name":"Z_UP","extras":{"name":"Z_UP"},"children":[13]},{"matrix":[6.661338147750939e-16,1.6653345369377348e-16,-2.999999999999999,0,-2.988584094275236,0.26146722824297475,-1.6653345369377348e-16,0,0.26146722824297425,2.988584094275236,6.661338147750939e-16,0,-1.9741568904851787,0.9447379583188893,-0.04555910219554715,1],"name":"UHF","extras":{"_children":[{"uuid":"4A59556D-DB78-4CB7-8580-46D952F3B1C7","children":[{"uuid":"9735DBD2-7B8D-4AA8-A624-472980A14C41","children":[{"uuid":"A689711C-EFF1-483F-80B3-61E32F6EEFCB","children":[{"uuid":"69DD66F0-FD82-47BC-94A4-2006024897BB","children":[]},{"uuid":"B22DE764-3187-4A46-B64E-8139169A4B74","children":[]},{"uuid":"DE6EFE22-7104-4F6E-A158-641CCC591394","children":[]},{"uuid":"D61A0AE3-E173-4F86-BC44-231B9326D3D4","children":[]}]}]}]}],"physics":{"enabled":false,"type":"rigidBody","shape":"btBoxShape","mass":1,"inertia":{"x":0,"y":0,"z":0}},"ID":"64cb6cf078138dcc70f2a076","Name":"UHF","CategoryID":"","CategoryName":"","TotalPinYin":"","FirstPinYin":"","Type":"gltf","Url":"/Upload/Model/20230803170136/UHF.gltf","FileName":"","FileSize":"","FileType":"","SaveName":"","SavePath":"","AddTime":"0001-01-01 00:00:00","Thumbnail":"","id":"64cb6cf078138dcc70f2a076","src":null,"title":"UHF","icon":"model","cornerText":"gltf","Server":true},"children":[14]},{"name":"pCube351_1","mesh":1},{"name":"pCube351_2","mesh":2},{"name":"pCube351_3","mesh":3},{"name":"pCube351_4","mesh":4},{"matrix":[1,0,0,0,0,1,0,0,0,0,1,0,0.2309354990720749,-0.05464321002364159,0.1667580008506775,1],"children":[16,17,18,19]},{"matrix":[56.73768615722674,-73.97837066650392,0.000006893797296420495,0,0.000006893797920399637,0.000013975053717090174,93.2307052612308,0,-73.97837066650455,-56.737686157226236,0.000013975053969479623,0,0,0,0.035969078540802,1],"name":"pCube351","extras":{"name":"pCube351"},"children":[20]},{"matrix":[1,0,0,0,0,2.220446049250313e-16,-1,0,0,1,2.220446049250313e-16,0,0,0,0,1],"name":"Z_UP","extras":{"name":"Z_UP"},"children":[21]},{"matrix":[6.661338147750939e-16,1.6653345369377348e-16,-2.999999999999999,0,-2.988584094275236,0.26146722824297475,-1.6653345369377348e-16,0,0.26146722824297425,2.988584094275236,6.661338147750939e-16,0,2.3947387573296286,0.8900955850985008,-0.04555910219554715,1],"name":"UHF","extras":{"_children":[{"uuid":"9079E66F-74BB-42B3-8B64-15DAC647078A","children":[{"uuid":"BCFFA38E-0E5F-4D83-9789-70C6112EB84D","children":[{"uuid":"2C0E709D-00E0-49D0-874F-C689BDE0E307","children":[{"uuid":"087D61E2-93AC-4276-A243-FD25FE16482C","children":[]},{"uuid":"83618D5E-39A6-4C25-ADD9-AFAC370C6B92","children":[]},{"uuid":"9182F377-12C6-4525-9694-1039E334B06E","children":[]},{"uuid":"459AA972-A9CA-471F-A43E-103F8BDB6BE6","children":[]}]}]}]}],"physics":{"enabled":false,"type":"rigidBody","shape":"btBoxShape","mass":1,"inertia":{"x":0,"y":0,"z":0}},"ID":"64cb6cf078138dcc70f2a076","Name":"UHF","CategoryID":"","CategoryName":"","TotalPinYin":"","FirstPinYin":"","Type":"gltf","Url":"/Upload/Model/20230803170136/UHF.gltf","FileName":"","FileSize":"","FileType":"","SaveName":"","SavePath":"","AddTime":"0001-01-01 00:00:00","Thumbnail":"","id":"64cb6cf078138dcc70f2a076","src":null,"title":"UHF","icon":"model","cornerText":"gltf","Server":true},"children":[22]},{"name":"pCube351_1","mesh":1},{"name":"pCube351_2","mesh":2},{"name":"pCube351_3","mesh":3},{"name":"pCube351_4","mesh":4},{"matrix":[1,0,0,0,0,1,0,0,0,0,1,0,0.2309354990720749,-0.05464321002364159,0.1667580008506775,1],"children":[24,25,26,27]},{"matrix":[56.73768615722674,-73.97837066650392,0.000006893797296420495,0,0.000006893797920399637,0.000013975053717090174,93.2307052612308,0,-73.97837066650455,-56.737686157226236,0.000013975053969479623,0,0,0,0.035969078540802,1],"name":"pCube351","extras":{"name":"pCube351"},"children":[28]},{"matrix":[1,0,0,0,0,2.220446049250313e-16,-1,0,0,1,2.220446049250313e-16,0,0,0,0,1],"name":"Z_UP","extras":{"name":"Z_UP"},"children":[29]},{"matrix":[6.661338147750939e-16,1.6653345369377348e-16,-2.999999999999999,0,-2.988584094275236,0.26146722824297475,-1.6653345369377348e-16,0,0.26146722824297425,2.988584094275236,6.661338147750939e-16,0,-6.33886192714228,0.9581754093550645,-0.04555910219554715,1],"name":"UHF","extras":{"_children":[{"uuid":"9844E481-7374-4944-B2B8-FFBC9ACF5C35","children":[{"uuid":"97D2ECC5-FBBB-400D-BDA8-EEF7D23BA013","children":[{"uuid":"3F354644-28FE-4443-90A0-514FA4F1BEDE","children":[{"uuid":"553E5076-139F-49B4-913C-95AB22BE010E","children":[]},{"uuid":"2BDB39DB-ADA9-4EF6-B8CE-613168904AF3","children":[]},{"uuid":"C2ED5A99-AAA1-49CB-9360-881B13472759","children":[]},{"uuid":"A4E83C08-9942-4393-BC2F-D965F702B88D","children":[]}]}]}]}],"physics":{"enabled":false,"type":"rigidBody","shape":"btBoxShape","mass":1,"inertia":{"x":0,"y":0,"z":0}},"ID":"64cb6cf078138dcc70f2a076","Name":"UHF","CategoryID":"","CategoryName":"","TotalPinYin":"","FirstPinYin":"","Type":"gltf","Url":"/Upload/Model/20230803170136/UHF.gltf","FileName":"","FileSize":"","FileType":"","SaveName":"","SavePath":"","AddTime":"0001-01-01 00:00:00","Thumbnail":"","id":"64cb6cf078138dcc70f2a076","src":null,"title":"UHF","icon":"model","cornerText":"gltf","Server":true},"children":[30]}],"extensions":{"KHR_lights_punctual":{"lights":[{"name":"平行光","color":[1,1,1],"intensity":0.56,"type":"directional"}]}},"bufferViews":[{"buffer":0,"byteOffset":0,"byteLength":667080,"target":34962,"byteStride":12},{"buffer":0,"byteOffset":667080,"byteLength":667080,"target":34962,"byteStride":12},{"buffer":0,"byteOffset":1334160,"byteLength":444720,"target":34962,"byteStride":8},{"buffer":0,"byteOffset":1778880,"byteLength":10632,"target":34962,"byteStride":12},{"buffer":0,"byteOffset":1789512,"byteLength":10632,"target":34962,"byteStride":12},{"buffer":0,"byteOffset":1800144,"byteLength":9528,"target":34963},{"buffer":0,"byteOffset":1809672,"byteLength":312,"target":34962,"byteStride":12},{"buffer":0,"byteOffset":1809984,"byteLength":312,"target":34962,"byteStride":12},{"buffer":0,"byteOffset":1810296,"byteLength":144,"target":34963},{"buffer":0,"byteOffset":1810440,"byteLength":43080,"target":34962,"byteStride":12},{"buffer":0,"byteOffset":1853520,"byteLength":43080,"target":34962,"byteStride":12},{"buffer":0,"byteOffset":1896600,"byteLength":28720,"target":34962,"byteStride":8},{"buffer":0,"byteOffset":1925320,"byteLength":20604,"target":34963},{"buffer":0,"byteOffset":1945924,"byteLength":2064,"target":34962,"byteStride":12},{"buffer":0,"byteOffset":1947988,"byteLength":2064,"target":34962,"byteStride":12},{"buffer":0,"byteOffset":1950052,"byteLength":924,"target":34963}],"buffers":[{"byteLength":1950976,"uri":"data:application/octet-stream;base64,"}],"accessors":[{"bufferView":0,"componentType":5126,"count":55590,"max":[85.75930786132812,33.72918701171875,15.553359985351562],"min":[-85.73490905761719,-0.44609999656677246,-18.639404296875],"type":"VEC3"},{"bufferView":1,"componentType":5126,"count":55590,"max":[0.999994158744812,0.9999373555183411,0.9999997019767761],"min":[-0.9999934434890747,-0.9999776482582092,-0.9999997019767761],"type":"VEC3"},{"bufferView":2,"componentType":5126,"count":55590,"max":[0.9902240037918091,0.9901710152626038],"min":[0.011381000280380249,0.009073999710381031],"type":"VEC2"},{"bufferView":3,"componentType":5126,"count":886,"max":[0.9998412132263184,0.9991937279701233,0.999942421913147],"min":[-0.5993984937667847,-0.9991947412490845,-0.7982085943222046],"type":"VEC3"},{"bufferView":4,"componentType":5126,"count":886,"max":[-0.23026598989963531,0.05501888692378998,-0.16599488258361816],"min":[-0.23145078122615814,0.054268840700387955,-0.16734619438648224],"type":"VEC3"},{"bufferView":5,"componentType":5123,"count":4764,"max":[885],"min":[0],"type":"SCALAR"},{"bufferView":6,"componentType":5126,"count":26,"max":[-0.6743357181549072,0,-0.4430249035358429],"min":[-0.8965092897415161,-2.3175999342069933e-16,-0.7384248971939087],"type":"VEC3"},{"bufferView":7,"componentType":5126,"count":26,"max":[-0.23066218197345734,0.0550166592001915,-0.16628289222717285],"min":[-0.2314912974834442,0.05426754057407379,-0.1673852950334549],"type":"VEC3"},{"bufferView":8,"componentType":5123,"count":72,"max":[25],"min":[0],"type":"SCALAR"},{"bufferView":9,"componentType":5126,"count":3590,"max":[0.9425799250602722,0.9999999403953552,0.8130983114242554],"min":[-0.9229266047477722,-0.9999999403953552,-0.9526033997535706],"type":"VEC3"},{"bufferView":10,"componentType":5126,"count":3590,"max":[-0.23027218878269196,0.0550166592001915,-0.1660010814666748],"min":[-0.23160488903522491,0.05426754057407379,-0.16752108931541443],"type":"VEC3"},{"bufferView":11,"componentType":5126,"count":3590,"max":[0.998008131980896,0.9817360639572144],"min":[0.0019920228514820337,0.00344926118850708],"type":"VEC2"},{"bufferView":12,"componentType":5123,"count":10302,"max":[3589],"min":[0],"type":"SCALAR"},{"bufferView":13,"componentType":5126,"count":172,"max":[0.9085956811904907,0.9999999403953552,0.7994788885116577],"min":[-0.8887268900871277,-0.9999999403953552,-0.4584369957447052],"type":"VEC3"},{"bufferView":14,"componentType":5126,"count":172,"max":[-0.23066218197345734,0.0550166592001915,-0.16628289222717285],"min":[-0.23150479793548584,0.05426754057407379,-0.16739508509635925],"type":"VEC3"},{"bufferView":15,"componentType":5123,"count":462,"max":[171],"min":[0],"type":"SCALAR"}],"materials":[{"pbrMetallicRoughness":{"baseColorFactor":[0.7568627595901489,0.7568627595901489,0.7568627595901489,1],"metallicFactor":0.5,"roughnessFactor":0.5},"name":"default_material"},{"pbrMetallicRoughness":{"baseColorFactor":[0.5870130062103271,0.5870130062103271,0.5870130062103271,1],"metallicFactor":0,"roughnessFactor":1},"name":"lambert1"},{"pbrMetallicRoughness":{"baseColorFactor":[0,0,0,1],"metallicFactor":0,"roughnessFactor":1},"name":"PDS_US02C_180124_3_2_Rough_Black"},{"pbrMetallicRoughness":{"metallicFactor":0,"roughnessFactor":1,"baseColorTexture":{"index":0}},"occlusionTexture":{"index":0,"texCoord":1},"name":"PDS_US02C_180124_3_2_blinn1"},{"pbrMetallicRoughness":{"baseColorFactor":[0.615381121635437,0.615381121635437,0.615381121635437,1],"metallicFactor":0,"roughnessFactor":1},"name":"PDS_US02C_180124_3_2_Fabric-Blue_Denim"}],"meshes":[{"primitives":[{"mode":4,"attributes":{"POSITION":0,"NORMAL":1,"TEXCOORD_0":2},"material":0}]},{"primitives":[{"mode":4,"attributes":{"NORMAL":3,"POSITION":4},"indices":5,"material":1}]},{"primitives":[{"mode":4,"attributes":{"NORMAL":6,"POSITION":7},"indices":8,"material":2}]},{"primitives":[{"mode":4,"attributes":{"NORMAL":9,"POSITION":10,"TEXCOORD_0":11,"TEXCOORD_1":11},"indices":12,"material":3}]},{"primitives":[{"mode":4,"attributes":{"NORMAL":13,"POSITION":14},"indices":15,"material":4}]}],"textures":[{"sampler":0,"source":0}],"samplers":[{"magFilter":9729,"minFilter":9986,"wrapS":10497,"wrapT":10497}],"images":[{"mimeType":"image/png","uri":"data:image/png;base64,"}],"extensionsUsed":["KHR_lights_punctual"]}