{
    "asset": {
        "generator": "COLLADA2GLTF",
        "version": "2.0"
    },
    "scenes": [
        {
            "nodes": [
                0
            ]
        }
    ],
    "scene": 0,
    "nodes": [
        {
            "children": [
                3,
                1
            ],
            "matrix": [
                1.0,
                0.0,
                0.0,
                0.0,
                0.0,
                0.0,
                -1.0,
                0.0,
                0.0,
                1.0,
                0.0,
                0.0,
                0.0,
                0.0,
                0.0,
                1.0
            ],
            "name": "Z_UP"
        },
        {
            "children": [
                2
            ],
            "name": "_"
        },
        {
            "mesh": 0,
            "matrix": [
                1.0,
                0.0,
                0.0,
                0.0,
                0.0,
                1.0,
                0.0,
                0.0,
                0.0,
                0.0,
                1.0,
                0.0,
                -0.63960862159729,
                -1.215140059684927e-7,
                -0.23998939990997318,
                1.0
            ]
        },
        {
            "children": [
                4
            ],
            "name": "_3"
        },
        {
            "mesh": 1,
            "matrix": [
                1.0,
                0.0,
                0.0,
                0.0,
                0.0,
                1.0,
                0.0,
                0.0,
                0.0,
                0.0,
                1.0,
                0.0,
                -0.63960862159729,
                0.0009533739648759364,
                -0.23998939990997318,
                1.0
            ]
        }
    ],
    "meshes": [
        {
            "primitives": [
                {
                    "attributes": {
                        "COLOR_0": 1,
                        "NORMAL": 2,
                        "POSITION": 3
                    },
                    "indices": 0,
                    "mode": 4,
                    "material": 0
                }
            ],
            "name": "_"
        },
        {
            "primitives": [
                {
                    "attributes": {
                        "COLOR_0": 5,
                        "NORMAL": 6,
                        "POSITION": 7
                    },
                    "indices": 4,
                    "mode": 4,
                    "material": 1
                }
            ],
            "name": "_3"
        }
    ],
    "accessors": [
        {
            "bufferView": 0,
            "byteOffset": 0,
            "componentType": 5123,
            "count": 8568,
            "max": [
                4152
            ],
            "min": [
                0
            ],
            "type": "SCALAR"
        },
        {
            "bufferView": 1,
            "byteOffset": 0,
            "componentType": 5126,
            "count": 4153,
            "max": [
                0.9647058844566344,
                0.8745098114013672,
                0.1450980007648468
            ],
            "min": [
                0.9647058844566344,
                0.8745098114013672,
                0.1450980007648468
            ],
            "type": "VEC3"
        },
        {
            "bufferView": 1,
            "byteOffset": 49836,
            "componentType": 5126,
            "count": 4153,
            "max": [
                0.8447089791297913,
                0.9999977946281432,
                0.9574488401412964
            ],
            "min": [
                -0.9817548394203186,
                -0.9999977946281432,
                -0.9522591829299928
            ],
            "type": "VEC3"
        },
        {
            "bufferView": 1,
            "byteOffset": 99672,
            "componentType": 5126,
            "count": 4153,
            "max": [
                0.7958776354789734,
                0.04122776910662651,
                0.9826605319976808
            ],
            "min": [
                0.4833396971225739,
                -0.04122760146856308,
                0.2573181092739105
            ],
            "type": "VEC3"
        },
        {
            "bufferView": 0,
            "byteOffset": 17136,
            "componentType": 5123,
            "count": 8580,
            "max": [
                4229
            ],
            "min": [
                0
            ],
            "type": "SCALAR"
        },
        {
            "bufferView": 1,
            "byteOffset": 149508,
            "componentType": 5126,
            "count": 4230,
            "max": [
                0.9647058844566344,
                0.8745098114013672,
                0.1450980007648468
            ],
            "min": [
                0.9647058844566344,
                0.8745098114013672,
                0.1450980007648468
            ],
            "type": "VEC3"
        },
        {
            "bufferView": 1,
            "byteOffset": 200268,
            "componentType": 5126,
            "count": 4230,
            "max": [
                0.8857445120811462,
                0.003825597930699587,
                1.0
            ],
            "min": [
                -0.9905363917350768,
                -0.8980417847633362,
                -1.0
            ],
            "type": "VEC3"
        },
        {
            "bufferView": 1,
            "byteOffset": 251028,
            "componentType": 5126,
            "count": 4230,
            "max": [
                0.7958776354789734,
                0.03932071104645729,
                0.9826605319976808
            ],
            "min": [
                0.4833396971225739,
                -0.04122760146856308,
                0.2573181092739105
            ],
            "type": "VEC3"
        }
    ],
    "materials": [
        {
            "pbrMetallicRoughness": {
                "baseColorFactor": [
                    1.0,
                    0.7454041838645935,
                    0.028426039963960649,
                    1.0
                ],
                "metallicFactor": 0.0
            },
            "emissiveFactor": [
                0.0,
                0.0,
                0.0
            ],
            "name": "material_0"
        },
        {
            "pbrMetallicRoughness": {
                "baseColorFactor": [
                    1.0,
                    0.7454041838645935,
                    0.028426039963960649,
                    1.0
                ],
                "metallicFactor": 0.0
            },
            "emissiveFactor": [
                0.0,
                0.0,
                0.0
            ],
            "name": "material_0"
        }
    ],
    "bufferViews": [
        {
            "buffer": 0,
            "byteOffset": 301788,
            "byteLength": 34296,
            "target": 34963
        },
        {
            "buffer": 0,
            "byteOffset": 0,
            "byteLength": 301788,
            "byteStride": 12,
            "target": 34962
        }
    ],
    "buffers": [
        {
            "byteLength": 336084,
            "uri": "data:application/octet-stream;base64,"
        }
    ]
}
