<?xml version="1.0" standalone="no"?><!DOCTYPE svg PUBLIC "-//W3C//DTD SVG 1.1//EN" "http://www.w3.org/Graphics/SVG/1.1/DTD/svg11.dtd"><svg t="1755160121236" class="icon" viewBox="0 0 1024 1024" version="1.1" xmlns="http://www.w3.org/2000/svg" p-id="4215" xmlns:xlink="http://www.w3.org/1999/xlink" width="200" height="200"><path d="M880.384 361.6H105.6v332.8h774.784V583.488h57.216V472.512h-57.216V361.6z m41.6 69.312h29.44c15.36 0 27.776 12.416 27.776 27.776v138.624c0 15.36-12.416 27.776-27.776 27.776h-29.44v83.2c0 15.296-12.416 27.712-27.712 27.712H91.712A27.712 27.712 0 0 1 64 708.288V347.712C64 332.416 76.416 320 91.712 320h802.56c15.296 0 27.712 12.416 27.712 27.712v83.2z" fill="#FFFFFF" p-id="4216"></path><path d="M273.024 375.424c7.04 0 12.8 5.76 12.8 12.8v279.488a12.8 12.8 0 0 1-12.8 12.8h-140.8a12.8 12.8 0 0 1-12.8-12.8V388.288c0-7.04 5.76-12.8 12.8-12.8h140.8z m194.112 0c7.04 0 12.8 5.76 12.8 12.8v279.488a12.8 12.8 0 0 1-12.8 12.8H326.4a12.8 12.8 0 0 1-12.8-12.8V388.288c0-7.04 5.76-12.8 12.8-12.8h140.8z m194.176 0c7.04 0 12.8 5.76 12.8 12.8v279.488a12.8 12.8 0 0 1-12.8 12.8h-140.8a12.8 12.8 0 0 1-12.8-12.8V388.288c0-7.04 5.76-12.8 12.8-12.8h140.8z m194.176 0c7.04 0 12.736 5.76 12.736 12.8v279.488a12.8 12.8 0 0 1-12.8 12.8h-140.8a12.8 12.8 0 0 1-12.8-12.8V388.288c0-7.04 5.76-12.8 12.8-12.8h140.8z" fill="#2BE47D" p-id="4217"></path></svg>