<?xml version="1.0" standalone="no"?><!DOCTYPE svg PUBLIC "-//W3C//DTD SVG 1.1//EN" "http://www.w3.org/Graphics/SVG/1.1/DTD/svg11.dtd"><svg t="1755160114362" class="icon" viewBox="0 0 1024 1024" version="1.1" xmlns="http://www.w3.org/2000/svg" p-id="4058" xmlns:xlink="http://www.w3.org/1999/xlink" width="200" height="200"><path d="M149.312 490.688a64 64 0 0 1 64 64v208a64 64 0 0 1-64 64H128a64 64 0 0 1-64-64v-208a64 64 0 0 1 64-64h21.312z m186.688-37.376a64 64 0 0 1 64 64v245.376a64 64 0 0 1-64 64h-21.312a64 64 0 0 1-64-64V517.312a64 64 0 0 1 64-64h21.312z m186.688-112a64 64 0 0 1 64 64v357.376a64 64 0 0 1-64 64h-21.376a64 64 0 0 1-64-64V405.312a64 64 0 0 1 64-64h21.376z m186.624-74.624a64 64 0 0 1 64 64v432a64 64 0 0 1-64 64h-21.312a64 64 0 0 1-64-64v-432a64 64 0 0 1 64-64h21.312zM896 192a64 64 0 0 1 64 64v506.688a64 64 0 0 1-64 64h-21.312a64 64 0 0 1-64-64V256a64 64 0 0 1 64-64H896z" fill="#2BE47D" p-id="4059"></path></svg>