<?xml version="1.0" standalone="no"?><!DOCTYPE svg PUBLIC "-//W3C//DTD SVG 1.1//EN" "http://www.w3.org/Graphics/SVG/1.1/DTD/svg11.dtd"><svg t="1755160104464" class="icon" viewBox="0 0 1024 1024" version="1.1" xmlns="http://www.w3.org/2000/svg" p-id="3901" xmlns:xlink="http://www.w3.org/1999/xlink" width="200" height="200"><path d="M780.864 732.096a44.16 44.16 0 0 1-44.8-43.392V341.696a43.968 43.968 0 0 1 42.688-45.44 44.288 44.288 0 0 1 46.912 45.44v346.944a44.16 44.16 0 0 1-44.8 43.456z m134.336-86.784a44.16 44.16 0 0 1-44.8-43.392v-173.44a43.968 43.968 0 0 1 42.688-45.44 44.352 44.352 0 0 1 46.912 41.28v177.6a44.16 44.16 0 0 1-44.8 43.392zM243.264 775.488a44.16 44.16 0 0 1-44.8-43.392V298.368a43.968 43.968 0 0 1 42.688-45.44 44.288 44.288 0 0 1 46.912 45.44v433.728a44.16 44.16 0 0 1-44.8 43.392z m134.4 173.504a44.16 44.16 0 0 1-44.8-43.328v-780.8a44.032 44.032 0 0 1 42.688-45.44 44.288 44.288 0 0 1 46.912 45.44V905.6a44.16 44.16 0 0 1-44.8 43.392z m134.4-173.44a44.16 44.16 0 0 1-44.8-43.456V298.368a43.968 43.968 0 0 1 42.688-45.44 44.288 44.288 0 0 1 46.912 45.44v433.728a44.16 44.16 0 0 1-44.8 43.392h0.064z m134.336-130.24a44.16 44.16 0 0 1-44.544-43.328V428.416a43.968 43.968 0 0 1 42.688-45.44 44.352 44.352 0 0 1 46.912 45.44v173.504a44.032 44.032 0 0 1-44.672 43.392H646.4z m-537.6 0a44.16 44.16 0 0 1-44.8-43.392h0.064v-173.44a43.968 43.968 0 0 1 42.688-45.44 44.288 44.288 0 0 1 46.912 41.28v177.6a44.16 44.16 0 0 1-44.736 43.392H108.8z" fill="#2BE47D" p-id="3902"></path></svg>